<svg width="90" height="90" viewBox="0 0 90 90" fill="none" xmlns="http://www.w3.org/2000/svg">
<path d="M66.574 26.8055H23.7716C19.2689 26.8055 15.6202 30.4514 15.6202 34.954L20.0369 81.8514C20.0369 86.3513 23.6884 89.9999 28.1909 89.9999H62.8394C67.3419 89.9999 70.9933 86.3513 70.9933 81.8514L74.7308 34.954C74.7253 30.4514 71.0766 26.8055 66.574 26.8055ZM34.3017 75.7325C34.3017 77.981 32.4774 79.8025 30.226 79.8025C27.9748 79.8025 26.1504 77.9781 26.1504 75.7325V39.0324C26.1504 36.7839 27.9748 34.954 30.226 34.954C32.4774 34.954 34.3017 36.7839 34.3017 39.0324V75.7325ZM48.5691 75.7325C48.5691 77.981 46.7447 79.8025 44.4935 79.8025C42.2422 79.8025 40.4179 77.9781 40.4179 75.7325V39.0324C40.4179 36.7839 42.2422 34.954 44.4935 34.954C46.7449 34.954 48.5691 36.7839 48.5691 39.0324V75.7325ZM62.8366 75.7325C62.8366 77.981 61.0122 79.8025 58.761 79.8025C56.5097 79.8025 54.6854 77.9781 54.6854 75.7325V39.0324C54.6854 36.7839 56.5097 34.954 58.761 34.954C61.0122 34.954 62.8366 36.7839 62.8366 39.0324V75.7325ZM21.5951 22.7299L70.9436 10.0345C73.6688 9.33578 75.3103 6.55768 74.6088 3.8323C73.9074 1.10693 71.1293 -0.53441 68.4039 0.158696L53.2353 4.06243C51.8297 1.97743 49.2345 0.882371 46.6617 1.54218L40.7423 3.06988C38.1693 3.73253 36.4254 5.94219 36.198 8.44585L19.0554 12.8597C16.33 13.5584 14.6914 16.3365 15.3901 19.0619C16.0916 21.79 18.8697 23.4258 21.5951 22.7299Z" fill="#898989"/>
</svg>
