<svg width="90" height="90" viewBox="0 0 90 90" fill="none" xmlns="http://www.w3.org/2000/svg">
<g clip-path="url(#clip0_1010_2)">
<path d="M84.8774 14.766C83.6064 13.4936 82.0986 12.8574 80.3576 12.8574H73.9298V8.03578C73.9298 5.82639 73.1423 3.93451 71.5688 2.36085C69.9944 0.787184 68.1036 0 65.8931 0H62.6797C60.4694 0 58.5779 0.787184 57.0042 2.36102C55.43 3.93451 54.6432 5.82657 54.6432 8.03596V12.8576H35.3585V8.03596C35.3585 5.82657 34.5713 3.93469 32.9975 2.36102C31.424 0.787184 29.5323 0 27.322 0H24.108C21.8983 0 20.0064 0.787184 18.4326 2.36102C16.8591 3.93451 16.0717 5.82657 16.0717 8.03596V12.8576H9.64372C7.90224 12.8576 6.39577 13.4938 5.12343 14.7662C3.8511 16.0383 3.21484 17.5455 3.21484 19.2864V83.5722C3.21484 85.3119 3.8511 86.8187 5.12343 88.0918C6.39559 89.3637 7.90206 90.0002 9.64372 90.0002H80.3564C82.0973 90.0002 83.6054 89.3639 84.8761 88.0918C86.1487 86.8192 86.7851 85.3117 86.7851 83.5722V19.2863C86.7849 17.5448 86.1492 16.0383 84.8774 14.766ZM24.1075 83.5713H9.64372V69.1065H24.1075V83.5713ZM24.1075 65.893H9.64372V49.8225H24.1075V65.893ZM24.1075 46.6067H9.64372V32.1431H24.1075V46.6067ZM22.9782 23.6301C22.66 23.3119 22.5011 22.936 22.5011 22.5003V8.03649C22.5011 7.60129 22.66 7.22432 22.9782 6.90664C23.2964 6.58842 23.6723 6.42958 24.108 6.42958H27.322C27.7572 6.42958 28.1342 6.58842 28.4519 6.90664C28.7701 7.2245 28.9293 7.60129 28.9293 8.03649V22.5003C28.9293 22.9362 28.7694 23.3121 28.4519 23.6301C28.134 23.9483 27.7577 24.1072 27.322 24.1072H24.108C23.6728 24.1073 23.2964 23.9483 22.9782 23.6301ZM43.3932 83.5713H27.3215V69.1065H43.3932V83.5713ZM43.3932 65.893H27.3215V49.8225H43.3932V65.893ZM43.3932 46.6067H27.3215V32.1431H43.3932V46.6067ZM62.6797 83.5713H46.6081V69.1065H62.6797V83.5713ZM62.6797 65.893H46.6081V49.8225H62.6797V65.893ZM62.6797 46.6067H46.6081V32.1431H62.6797V46.6067ZM61.5491 23.6301C61.2313 23.3119 61.0729 22.936 61.0729 22.5003V8.03649C61.0729 7.60129 61.2313 7.22432 61.5491 6.90664C61.8672 6.58842 62.2438 6.42958 62.6797 6.42958H65.8931C66.329 6.42958 66.7053 6.58842 67.0237 6.90664C67.3417 7.2245 67.4999 7.60129 67.4999 8.03649V22.5003C67.4999 22.9362 67.341 23.3121 67.0237 23.6301C66.7058 23.9483 66.329 24.1072 65.8931 24.1072H62.6797C62.244 24.1073 61.8659 23.9483 61.5491 23.6301ZM80.3564 83.5713H65.8919V69.1065H80.3564V83.5713ZM80.3564 65.893H65.8919V49.8225H80.3564V65.893ZM80.3564 46.6067H65.8919V32.1431H80.3564V46.6067Z" fill="#00245E"/>
</g>
<defs>
<clipPath id="clip0_1010_2">
<rect width="90" height="90" fill="white"/>
</clipPath>
</defs>
</svg>
